# xmcd
#
# Track frame offsets: 
#        150
#        12010
#        25096
#        37584
#        49747
#        63848
#        78635
#        93458
#        105300
#        119722
#        134428
#        148930
#        160648
#        173214
#        186189
#        197634
#        207964
#        220607
#        233398
#        244533
#        256655
#        268229
#        281958
#        296456
#        310264
#
# Disc length: 4310 seconds
#
# Revision: 0
# Processed by: cddbd v1.5.2PL0 Copyright (c) Steve Scherf et al.
# Submitted via: ExactAudioCopyFreeDBPlugin 1.0
#
DISCID=5b10d419
DTITLE=J.E. Mainer - J.E. Mainer The Early Years CD1
DYEAR=1900
DGENRE=
TTITLE0=Ship Sa‎ilng Now
TTITLE1=This World Is Not My Own
TTITLE2=Maple On The Hill
TTITLE3=Take Me In The Lifeboat
TTITLE4=Seven and A Half
TTITLE5=New Curly Headed Baby
TTITLE6=Let Her Go God Bless Her
TTITLE7=City On The Hill
TTITLE8=The Longest Train
TTITLE9=Write A Letter To Mother
TTITLE10=Lights In The Valley
TTITLE11=Goin' Back West In The Fall
TTITLE12=New Lost Train Blues
TTITLE13=Number 111
TTITLE14=I am Walking In The Light
TTITLE15=Don't Cause Mothers Hair To Turn Grey
TTITLE16=When I Reach My Home Eternal
TTITLE17=Fatal Wreck Of The Buss
TTITLE18=Behind The Parlor Door
TTITLE19=Satisfied
TTITLE20=One To Love Me
TTITLE21=On A Cold Winter Night
TTITLE22=John Henry Was A Little Boy
TTITLE23=The Old And Faded Picture
TTITLE24=Take Me Home To The Sweet Sunny South
EXTD=
EXTT0=
EXTT1=
EXTT2=
EXTT3=
EXTT4=
EXTT5=
EXTT6=
EXTT7=
EXTT8=
EXTT9=
EXTT10=
EXTT11=
EXTT12=
EXTT13=
EXTT14=
EXTT15=
EXTT16=
EXTT17=
EXTT18=
EXTT19=
EXTT20=
EXTT21=
EXTT22=
EXTT23=
EXTT24=
PLAYORDER=
